<svg width="133" height="60" viewBox="0 0 133 60" fill="none" xmlns="http://www.w3.org/2000/svg">
<path d="M90.7622 29.1351C97.777 30.7119 104.901 31.7338 112.07 32.1918C102.645 31.1623 93.5263 28.1797 85.2718 23.4269C83.499 22.4043 81.722 21.2829 79.7206 20.903L84.2138 26.5037C84.2299 26.5276 84.2371 26.5565 84.234 26.5853C84.2309 26.6141 84.2178 26.6408 84.197 26.6605C84.1763 26.6802 84.1492 26.6916 84.1208 26.6927C84.0925 26.6937 84.0647 26.6843 84.0426 26.6662L74.7464 17.3983C73.3511 16.0079 71.3712 14.4734 69.5941 16.3826C69.4147 16.5813 69.2537 16.7964 69.1131 17.0253C67.853 19.0148 66.4997 20.9373 65.0531 22.7929C64.8014 23.1152 64.4966 23.4628 64.0943 23.4793C63.7108 23.4951 63.389 23.2042 63.1074 22.9387C61.4524 21.3779 59.5977 20.0532 57.5939 19.0008C56.5435 18.4498 55.2826 17.9738 54.2178 18.5004C53.6494 18.7825 51.2167 21.3886 50.7818 21.8567C44.01 29.1482 31.4071 35.8485 20 38.7209C28.56 38.472 36.8153 35.4276 44.5407 31.66C48.6641 29.6513 53.3918 27.3806 57.5921 29.2198C60.7354 30.5954 62.9353 34.087 66.1333 34.9193C66.224 34.9439 66.3197 34.9406 66.4085 34.9097C66.4972 34.8788 66.575 34.8217 66.632 34.7457C66.689 34.6697 66.7226 34.5782 66.7286 34.4827C66.7346 34.3872 66.7128 34.292 66.6658 34.2092C65.7122 32.5647 64.1209 31.0373 64.9178 29.3945C65.2919 28.6225 66.0862 28.1657 66.9285 28.1142C68.864 27.9954 70.3337 29.2818 72.0757 29.7438C73.3597 30.0836 74.9861 29.7893 75.5442 28.5613C75.7154 28.1806 75.765 27.7491 75.9628 27.3823C76.3728 26.619 77.3435 26.3256 78.1884 26.4548C79.0333 26.5841 79.7848 27.047 80.5227 27.4845C84.9771 30.1278 89.7466 32.1749 94.7135 33.5752C93.1379 32.358 91.798 30.8524 90.7622 29.1351Z" fill="#B99B6B"/>
<path d="M92.4884 24.8535C91.4468 10.9516 80.1116 0 66.2846 0C51.7682 0 40 12.0636 40 26.9445C40 27.4301 40.0133 27.9131 40.0375 28.3953C44.5491 25.7496 48.5512 22.7293 51.4468 19.5885C51.8697 19.1311 54.2358 16.5852 54.7887 16.3096C55.8219 15.7975 57.0507 16.2592 58.0723 16.7977C60.0212 17.8261 61.8251 19.1206 63.4347 20.646C63.7086 20.902 64.0217 21.1896 64.3947 21.1743C64.786 21.1589 65.0824 20.8184 65.3271 20.5034C66.7425 18.677 68.0682 16.7824 69.3042 14.8194C69.4381 14.6036 69.5917 14.4012 69.763 14.2152C71.4864 12.3819 73.4029 13.8738 74.7583 15.2282L74.7891 15.2589C76.6374 17.1034 78.8418 18.5308 81.2606 19.4494C82.745 20.017 84.1745 20.6443 84.9954 21.1196C87.4152 22.5222 89.9176 23.7693 92.4884 24.8535Z" fill="#F2E6D3"/>
<path d="M10.2246 49.252L8.6543 53.4414L7.86914 53.248L8.03906 52.3867C7.72266 52.1875 7.40234 52.0352 7.07812 51.9297C6.75781 51.8203 6.4668 51.7402 6.20508 51.6895C5.90039 51.6309 5.60352 51.5977 5.31445 51.5898C5.01367 51.5898 4.70508 51.6055 4.38867 51.6367C4.07617 51.6641 3.77344 51.7129 3.48047 51.7832C3.1875 51.8535 2.91016 51.9473 2.64844 52.0645C2.39062 52.1816 2.16406 52.3262 1.96875 52.498C1.77734 52.6699 1.625 52.875 1.51172 53.1133C1.39844 53.3477 1.3418 53.6172 1.3418 53.9219C1.3418 54.3047 1.41992 54.6523 1.57617 54.9648C1.73242 55.2773 1.95898 55.5449 2.25586 55.7676C2.55664 55.9902 2.92578 56.1621 3.36328 56.2832C3.80469 56.4043 4.30664 56.4648 4.86914 56.4648C5.25586 56.457 5.64844 56.4199 6.04688 56.3535C6.21484 56.3262 6.39453 56.291 6.58594 56.248C6.77734 56.2051 6.9707 56.1523 7.16602 56.0898C7.36133 56.0234 7.55664 55.9473 7.75195 55.8613C7.95117 55.7754 8.14258 55.6758 8.32617 55.5625L8.92969 57.4141C8.83594 57.5078 8.70508 57.5898 8.53711 57.6602C8.37305 57.7305 8.1875 57.793 7.98047 57.8477C7.77734 57.8984 7.56055 57.9414 7.33008 57.9766C7.09961 58.0117 6.87109 58.041 6.64453 58.0645C6.11328 58.1191 5.53906 58.1504 4.92188 58.1582C4.10938 58.1582 3.41211 58.0449 2.83008 57.8184C2.24805 57.5879 1.76953 57.2793 1.39453 56.8926C1.02344 56.502 0.75 56.0508 0.574219 55.5391C0.398438 55.0273 0.310547 54.4883 0.310547 53.9219C0.310547 53.4023 0.384766 52.9316 0.533203 52.5098C0.685547 52.084 0.890625 51.7051 1.14844 51.373C1.41016 51.0371 1.71289 50.748 2.05664 50.5059C2.40039 50.2598 2.76367 50.0586 3.14648 49.9023C3.5332 49.7461 3.92773 49.6328 4.33008 49.5625C4.73633 49.4883 5.12891 49.457 5.50781 49.4688C5.79688 49.4844 6.10547 49.5176 6.43359 49.5684C6.71484 49.6113 7.0332 49.6758 7.38867 49.7617C7.74805 49.8477 8.11719 49.9648 8.49609 50.1133L8.73633 48.9531L10.2246 49.252ZM13.043 58.3574C12.5 58.3574 12.0312 58.2754 11.6367 58.1113C11.2461 57.9473 10.9238 57.7246 10.6699 57.4434C10.4199 57.1621 10.2344 56.834 10.1133 56.459C9.99219 56.084 9.93164 55.6855 9.93164 55.2637C9.93164 54.6973 10.0293 54.2012 10.2246 53.7754C10.4238 53.3496 10.6914 52.9961 11.0273 52.7148C11.3672 52.4297 11.7598 52.2168 12.2051 52.0762C12.6504 51.9355 13.1211 51.8652 13.6172 51.8652C14.1719 51.8652 14.6387 51.9473 15.0176 52.1113C15.4004 52.2754 15.709 52.4961 15.9434 52.7734C16.1777 53.0469 16.3457 53.3633 16.4473 53.7227C16.5527 54.0781 16.6055 54.4512 16.6055 54.8418C16.6055 55.373 16.5195 55.8555 16.3477 56.2891C16.1797 56.7227 15.9395 57.0938 15.627 57.4023C15.3184 57.707 14.9434 57.9414 14.502 58.1055C14.0645 58.2734 13.5781 58.3574 13.043 58.3574ZM13.2949 52.6621C13.0879 52.6621 12.9062 52.707 12.75 52.7969C12.5977 52.8828 12.4648 52.998 12.3516 53.1426C12.2422 53.2832 12.1504 53.4434 12.0762 53.623C12.002 53.8027 11.9434 53.9863 11.9004 54.1738C11.8574 54.3574 11.8262 54.5371 11.8066 54.7129C11.791 54.8887 11.7832 55.041 11.7832 55.1699C11.7832 55.3105 11.793 55.4688 11.8125 55.6445C11.832 55.8164 11.8652 55.9902 11.9121 56.166C11.959 56.3418 12.0215 56.5137 12.0996 56.6816C12.1777 56.8496 12.2754 56.998 12.3926 57.127C12.5098 57.2559 12.6465 57.3594 12.8027 57.4375C12.9629 57.5156 13.1465 57.5547 13.3535 57.5547C13.5645 57.5547 13.7441 57.5156 13.8926 57.4375C14.0449 57.3594 14.1719 57.2559 14.2734 57.127C14.3789 56.998 14.4629 56.8516 14.5254 56.6875C14.5879 56.5234 14.6348 56.3574 14.666 56.1895C14.7012 56.0176 14.7246 55.8516 14.7363 55.6914C14.748 55.5312 14.7539 55.3887 14.7539 55.2637C14.7539 55.0957 14.7441 54.9141 14.7246 54.7188C14.709 54.5234 14.6797 54.3301 14.6367 54.1387C14.5977 53.9434 14.541 53.7578 14.4668 53.582C14.3965 53.4023 14.3066 53.2461 14.1973 53.1133C14.0918 52.9766 13.9629 52.8672 13.8105 52.7852C13.6621 52.7031 13.4902 52.6621 13.2949 52.6621ZM21.4336 56.6465L21.2461 58.1582L16.875 58.0234L16.8164 56.9688L18.293 56.8691L18.2812 50.7051L16.5879 50.6465V49.5859L20.2734 49.4688L19.6934 56.7637L21.4336 56.6465ZM24.8672 58.3574C24.3242 58.3574 23.8555 58.2754 23.4609 58.1113C23.0703 57.9473 22.748 57.7246 22.4941 57.4434C22.2441 57.1621 22.0586 56.834 21.9375 56.459C21.8164 56.084 21.7559 55.6855 21.7559 55.2637C21.7559 54.6973 21.8535 54.2012 22.0488 53.7754C22.248 53.3496 22.5156 52.9961 22.8516 52.7148C23.1914 52.4297 23.584 52.2168 24.0293 52.0762C24.4746 51.9355 24.9453 51.8652 25.4414 51.8652C25.9961 51.8652 26.4629 51.9473 26.8418 52.1113C27.2246 52.2754 27.5332 52.4961 27.7676 52.7734C28.002 53.0469 28.1699 53.3633 28.2715 53.7227C28.377 54.0781 28.4297 54.4512 28.4297 54.8418C28.4297 55.373 28.3438 55.8555 28.1719 56.2891C28.0039 56.7227 27.7637 57.0938 27.4512 57.4023C27.1426 57.707 26.7676 57.9414 26.3262 58.1055C25.8887 58.2734 25.4023 58.3574 24.8672 58.3574ZM25.1191 52.6621C24.9121 52.6621 24.7305 52.707 24.5742 52.7969C24.4219 52.8828 24.2891 52.998 24.1758 53.1426C24.0664 53.2832 23.9746 53.4434 23.9004 53.623C23.8262 53.8027 23.7676 53.9863 23.7246 54.1738C23.6816 54.3574 23.6504 54.5371 23.6309 54.7129C23.6152 54.8887 23.6074 55.041 23.6074 55.1699C23.6074 55.3105 23.6172 55.4688 23.6367 55.6445C23.6562 55.8164 23.6895 55.9902 23.7363 56.166C23.7832 56.3418 23.8457 56.5137 23.9238 56.6816C24.002 56.8496 24.0996 56.998 24.2168 57.127C24.334 57.2559 24.4707 57.3594 24.627 57.4375C24.7871 57.5156 24.9707 57.5547 25.1777 57.5547C25.3887 57.5547 25.5684 57.5156 25.7168 57.4375C25.8691 57.3594 25.9961 57.2559 26.0977 57.127C26.2031 56.998 26.2871 56.8516 26.3496 56.6875C26.4121 56.5234 26.459 56.3574 26.4902 56.1895C26.5254 56.0176 26.5488 55.8516 26.5605 55.6914C26.5723 55.5312 26.5781 55.3887 26.5781 55.2637C26.5781 55.0957 26.5684 54.9141 26.5488 54.7188C26.5332 54.5234 26.5039 54.3301 26.4609 54.1387C26.4219 53.9434 26.3652 53.7578 26.291 53.582C26.2207 53.4023 26.1309 53.2461 26.0215 53.1133C25.916 52.9766 25.7871 52.8672 25.6348 52.7852C25.4863 52.7031 25.3145 52.6621 25.1191 52.6621ZM37.2188 58.1348H34.0488L34.125 57.1738C33.8281 57.4082 33.5371 57.5879 33.252 57.7129C32.9707 57.8379 32.7188 57.9297 32.4961 57.9883C32.2344 58.0586 31.9844 58.0977 31.7461 58.1055C31.375 58.1055 31.0664 58.0586 30.8203 57.9648C30.5742 57.8672 30.377 57.7324 30.2285 57.5605C30.084 57.3848 29.9805 57.1758 29.918 56.9336C29.8555 56.6875 29.8242 56.4141 29.8242 56.1133C29.8242 55.9531 29.8262 55.8125 29.8301 55.6914C29.834 55.5703 29.8398 55.4551 29.8477 55.3457C29.8594 55.2324 29.8711 55.1172 29.8828 55C29.8984 54.8828 29.916 54.748 29.9355 54.5957C29.959 54.4434 29.9824 54.2676 30.0059 54.0684C30.0332 53.8652 30.0645 53.623 30.0996 53.3418L28.8516 53.418L29.0332 52.0117L31.9277 52.1348C31.8809 52.5684 31.8398 52.9453 31.8047 53.2656C31.7695 53.582 31.7383 53.8574 31.7109 54.0918C31.6875 54.3262 31.666 54.5254 31.6465 54.6895C31.6309 54.8535 31.6172 55 31.6055 55.1289C31.5938 55.2539 31.5859 55.3672 31.582 55.4688C31.5781 55.5664 31.5762 55.6699 31.5762 55.7793C31.5762 55.9551 31.5898 56.1211 31.6172 56.2773C31.6445 56.4336 31.6914 56.5703 31.7578 56.6875C31.8281 56.8047 31.918 56.8965 32.0273 56.9629C32.1406 57.0293 32.2793 57.0625 32.4434 57.0625C32.6465 57.0508 32.8535 56.9941 33.0645 56.8926C33.2441 56.8066 33.4355 56.6719 33.6387 56.4883C33.8457 56.3047 34.043 56.041 34.2305 55.6973L34.4121 53.2246L33.0879 53.2715L33.2109 52.0117L37.2188 52.1582V53.1016L35.8887 53.166L35.959 56.9922L37.2188 57.0977V58.1348ZM42.6387 56.6582V57.6426L38.127 58.2168L37.957 56.7168L39.457 56.7051L39.5273 53.4531L37.7051 53.3184V52.3223L41.4961 51.9883L41.3027 53.2949C41.3887 53.2051 41.502 53.1016 41.6426 52.9844C41.7832 52.8633 41.9375 52.7422 42.1055 52.6211C42.2773 52.4961 42.459 52.3711 42.6504 52.2461C42.8457 52.1211 43.041 52.0078 43.2363 51.9062C43.4316 51.8008 43.623 51.7109 43.8105 51.6367C44.002 51.5586 44.1777 51.5039 44.3379 51.4727L44.4961 53.418C43.9336 53.418 43.4492 53.4668 43.043 53.5645C42.6406 53.6621 42.3047 53.7695 42.0352 53.8867C41.7227 54.0234 41.459 54.1777 41.2441 54.3496L40.834 56.6816L42.6387 56.6582ZM51.457 52L50.877 53.9922C50.6855 53.8906 50.4727 53.791 50.2383 53.6934C50.0039 53.5957 49.7617 53.5098 49.5117 53.4355C49.2656 53.3613 49.0176 53.3027 48.7676 53.2598C48.5215 53.2129 48.2891 53.1895 48.0703 53.1895C47.7656 53.1895 47.5176 53.2363 47.3262 53.3301C47.1348 53.4199 47.0391 53.5527 47.0391 53.7285C47.0391 53.8418 47.082 53.9395 47.168 54.0215C47.2539 54.0996 47.3828 54.1738 47.5547 54.2441C47.7305 54.3145 47.9492 54.3828 48.2109 54.4492C48.4766 54.5156 48.7852 54.5918 49.1367 54.6777C49.4531 54.752 49.75 54.8359 50.0273 54.9297C50.3047 55.0195 50.5449 55.1348 50.748 55.2754C50.9512 55.416 51.1113 55.5879 51.2285 55.791C51.3457 55.9941 51.4043 56.2422 51.4043 56.5352C51.4043 56.8477 51.3379 57.1113 51.2051 57.3262C51.0762 57.541 50.8945 57.7168 50.6602 57.8535C50.4258 57.9863 50.1484 58.082 49.8281 58.1406C49.5117 58.1992 49.166 58.2285 48.791 58.2285C48.334 58.2285 47.9414 58.1934 47.6133 58.123C47.2891 58.0527 47.0195 57.9766 46.8047 57.8945C46.5938 57.8086 46.4316 57.7305 46.3184 57.6602C46.209 57.5898 46.1406 57.5547 46.1133 57.5547L45.9961 58.5039L44.7598 58.082L45.4277 56.1777C45.5488 56.2559 45.6953 56.3379 45.8672 56.4238C46.0391 56.5098 46.2227 56.5957 46.418 56.6816C46.6133 56.7676 46.8164 56.8516 47.0273 56.9336C47.2422 57.0117 47.4531 57.082 47.6602 57.1445C47.8672 57.2031 48.0645 57.25 48.252 57.2852C48.4395 57.3203 48.6074 57.3379 48.7559 57.3379C48.8262 57.3379 48.9043 57.332 48.9902 57.3203C49.0762 57.3086 49.1562 57.2871 49.2305 57.2559C49.3086 57.2207 49.373 57.1738 49.4238 57.1152C49.4746 57.0527 49.5 56.9707 49.5 56.8691C49.5 56.7441 49.4551 56.6367 49.3652 56.5469C49.2754 56.4531 49.166 56.373 49.0371 56.3066C48.9082 56.2402 48.7695 56.1855 48.6211 56.1426C48.4766 56.0957 48.3457 56.0547 48.2285 56.0195C48.041 55.9688 47.834 55.9102 47.6074 55.8438C47.3809 55.7734 47.1504 55.6934 46.916 55.6035C46.6816 55.5098 46.4551 55.4043 46.2363 55.2871C46.0176 55.1699 45.8223 55.0352 45.6504 54.8828C45.4785 54.7305 45.3398 54.5605 45.2344 54.373C45.1328 54.1855 45.082 53.9746 45.082 53.7402C45.082 53.502 45.1387 53.2773 45.252 53.0664C45.3652 52.8516 45.5293 52.6641 45.7441 52.5039C45.9629 52.3438 46.2305 52.2168 46.5469 52.123C46.8672 52.0254 47.2305 51.9766 47.6367 51.9766C48.0195 51.9766 48.3691 52.0137 48.6855 52.0879C49.0059 52.1621 49.2832 52.2441 49.5176 52.334C49.791 52.4355 50.0371 52.5527 50.2559 52.6855L50.2324 51.7598L51.457 52ZM64.8984 53.752C64.8984 54.3691 64.8105 54.9492 64.6348 55.4922C64.459 56.0312 64.1855 56.5039 63.8145 56.9102C63.4434 57.3125 62.9668 57.6309 62.3848 57.8652C61.8027 58.0996 61.1055 58.2168 60.293 58.2168C59.4688 58.2168 58.7637 58.0996 58.1777 57.8652C57.5957 57.6309 57.1191 57.3125 56.748 56.9102C56.3809 56.5039 56.1113 56.0312 55.9395 55.4922C55.7676 54.9492 55.6816 54.3691 55.6816 53.752C55.6816 53.1348 55.7754 52.5547 55.9629 52.0117C56.1504 51.4648 56.4336 50.9902 56.8125 50.5879C57.1953 50.1816 57.6758 49.8613 58.2539 49.627C58.832 49.3926 59.5117 49.2754 60.293 49.2754C60.9023 49.2754 61.4395 49.3301 61.9043 49.4395C62.373 49.5449 62.7773 49.6953 63.1172 49.8906C63.457 50.082 63.7402 50.3145 63.9668 50.5879C64.1973 50.8574 64.3809 51.1582 64.5176 51.4902C64.6582 51.8223 64.7559 52.1797 64.8105 52.5625C64.8691 52.9453 64.8984 53.3418 64.8984 53.752ZM63.832 53.752C63.832 53.4238 63.7793 53.1152 63.6738 52.8262C63.5723 52.5332 63.3867 52.2793 63.1172 52.0645C62.8516 51.8457 62.4902 51.6738 62.0332 51.5488C61.5762 51.4238 60.9961 51.3613 60.293 51.3613C59.6914 51.3613 59.168 51.4238 58.7227 51.5488C58.2812 51.6738 57.9141 51.8457 57.6211 52.0645C57.3281 52.2793 57.1094 52.5332 56.9648 52.8262C56.8242 53.1152 56.7539 53.4238 56.7539 53.752C56.7539 54.0801 56.8184 54.3887 56.9473 54.6777C57.0801 54.9629 57.2871 55.2148 57.5684 55.4336C57.8535 55.6484 58.2188 55.8184 58.6641 55.9434C59.1133 56.0684 59.6562 56.1309 60.293 56.1309C60.918 56.1309 61.4531 56.0684 61.8984 55.9434C62.3438 55.8184 62.709 55.6484 62.9941 55.4336C63.2832 55.2148 63.4941 54.9629 63.627 54.6777C63.7637 54.3887 63.832 54.0801 63.832 53.752ZM71.1914 53.0078L68.9707 53.1309C68.9629 53.209 68.959 53.2891 68.959 53.3711C68.959 53.4531 68.959 53.5352 68.959 53.6172V56.9688L70.4707 56.9102L70.2773 58.1699L65.9121 58.0469L65.8359 57.0977L67.1484 57.0508L67.0371 53.3184V53.2246L65.3555 53.3066V52.0703L67.0723 52.1465C67.1152 51.7246 67.2012 51.3477 67.3301 51.0156C67.459 50.6836 67.6504 50.4043 67.9043 50.1777C68.1582 49.9512 68.4844 49.7793 68.8828 49.6621C69.2812 49.541 69.7695 49.4805 70.3477 49.4805C70.4844 49.4766 70.627 49.4824 70.7754 49.498C70.9004 49.5137 71.0371 49.5391 71.1855 49.5742C71.3379 49.6094 71.4824 49.6621 71.6191 49.7324L71.4082 51.0859C71.3066 50.9375 71.1875 50.8262 71.0508 50.752C70.9141 50.6777 70.7832 50.625 70.6582 50.5938C70.5098 50.5547 70.3594 50.5352 70.207 50.5352C70.043 50.5703 69.8965 50.6211 69.7676 50.6875C69.6387 50.7539 69.5254 50.8516 69.4277 50.9805C69.3301 51.1055 69.248 51.2695 69.1816 51.4727C69.1152 51.6719 69.0645 51.9238 69.0293 52.2285L71.1914 52.3105V53.0078ZM87.7559 54.2207L87.0234 57.6895L78.9609 58V56.1543L80.6309 56.2012L80.4727 51.2324L78.9609 51.2793V49.4336L84.0352 49.6387L84 51.1211L82.3184 51.1855L81.8789 56.2246L86.2324 56.3301L86.5312 54.2207H87.7559ZM95.3672 57.3262L95.0684 58.4102L92.1562 58.1934C92.1641 58.1348 92.1738 58.0703 92.1855 58C92.1973 57.9297 92.209 57.8633 92.2207 57.8008C92.2363 57.7305 92.25 57.6602 92.2617 57.5898C91.9219 57.7773 91.5781 57.9102 91.2305 57.9883C90.8828 58.0664 90.543 58.1055 90.2109 58.1055C89.9688 58.1055 89.7168 58.084 89.4551 58.041C89.1934 57.998 88.9531 57.9238 88.7344 57.8184C88.5195 57.709 88.3418 57.5664 88.2012 57.3906C88.0605 57.2109 87.9902 56.9863 87.9902 56.7168C87.9902 56.4316 88.0547 56.1855 88.1836 55.9785C88.3125 55.7715 88.4824 55.5957 88.6934 55.4512C88.9043 55.3027 89.1426 55.1836 89.4082 55.0938C89.6777 55.0039 89.9492 54.9336 90.2227 54.8828C90.5 54.8281 90.7695 54.793 91.0312 54.7773C91.293 54.7578 91.5234 54.748 91.7227 54.748C91.9336 54.748 92.123 54.7539 92.291 54.7656C92.459 54.7734 92.6094 54.7871 92.7422 54.8066C92.7891 54.5215 92.8125 54.25 92.8125 53.9922C92.8125 53.8047 92.7871 53.6348 92.7363 53.4824C92.6895 53.3301 92.6055 53.2031 92.4844 53.1016C92.3672 53 92.209 52.9238 92.0098 52.873C91.8145 52.8223 91.5703 52.8027 91.2773 52.8145C91.082 52.834 90.9023 52.8887 90.7383 52.9785C90.668 53.0176 90.5957 53.0664 90.5215 53.125C90.4512 53.1836 90.3828 53.2539 90.3164 53.3359C90.2539 53.418 90.1973 53.5156 90.1465 53.6289C90.0957 53.7383 90.0566 53.8633 90.0293 54.0039L88.1367 54.0977C88.1641 53.8281 88.2324 53.5898 88.3418 53.3828C88.4512 53.1719 88.584 52.9902 88.7402 52.8379C88.9004 52.6816 89.0762 52.5488 89.2676 52.4395C89.459 52.3301 89.6523 52.2383 89.8477 52.1641C90.3086 51.9961 90.8223 51.8926 91.3887 51.8535C91.8965 51.8457 92.3262 51.8945 92.6777 52C93.0332 52.1016 93.3262 52.2402 93.5566 52.416C93.7871 52.5879 93.9668 52.7832 94.0957 53.002C94.2246 53.2207 94.3184 53.4395 94.377 53.6582C94.4355 53.873 94.4688 54.0781 94.4766 54.2734C94.4844 54.4648 94.4863 54.623 94.4824 54.748C94.4707 54.9004 94.4434 55.0918 94.4004 55.3223C94.3652 55.5215 94.3125 55.7715 94.2422 56.0723C94.1758 56.373 94.084 56.7324 93.9668 57.1504L95.3672 57.3262ZM92.6074 55.5977C92.5176 55.5898 92.4199 55.584 92.3145 55.5801C92.209 55.5762 92.0996 55.5742 91.9863 55.5742C91.8887 55.5742 91.7676 55.5781 91.623 55.5859C91.4824 55.5938 91.334 55.6094 91.1777 55.6328C91.0215 55.6523 90.8652 55.6816 90.709 55.7207C90.5527 55.7598 90.4121 55.8105 90.2871 55.873C90.166 55.9355 90.0664 56.0117 89.9883 56.1016C89.9102 56.1914 89.8711 56.2969 89.8711 56.418C89.8711 56.5117 89.8984 56.6016 89.9531 56.6875C90.0117 56.7695 90.0898 56.8398 90.1875 56.8984C90.2852 56.957 90.3984 57 90.5273 57.0273C90.6602 57.0508 90.7988 57.0508 90.9434 57.0273C91.2363 56.9727 91.5117 56.9062 91.7695 56.8281C92.0312 56.7461 92.2559 56.668 92.4434 56.5938C92.4746 56.4297 92.5039 56.2637 92.5312 56.0957C92.5586 55.9277 92.584 55.7617 92.6074 55.5977ZM103.688 58.2871L100.711 58.1465L100.723 57.4258C100.488 57.6094 100.244 57.75 99.9902 57.8477C99.7363 57.9453 99.5039 58.0156 99.293 58.0586C99.043 58.1094 98.7988 58.1387 98.5605 58.1465C98.3926 58.1465 98.2031 58.127 97.9922 58.0879C97.7852 58.0527 97.5723 57.9922 97.3535 57.9062C97.1387 57.8164 96.9258 57.6973 96.7148 57.5488C96.5078 57.4004 96.3223 57.2148 96.1582 56.9922C95.998 56.7695 95.8672 56.5059 95.7656 56.2012C95.668 55.8926 95.6191 55.5371 95.6191 55.1348C95.6191 54.7246 95.668 54.3633 95.7656 54.0508C95.8672 53.7344 96.002 53.4629 96.1699 53.2363C96.3379 53.0059 96.5332 52.8145 96.7559 52.6621C96.9824 52.5059 97.2188 52.3828 97.4648 52.293C97.7148 52.1992 97.9688 52.1328 98.2266 52.0938C98.4844 52.0547 98.7324 52.0352 98.9707 52.0352C99.1816 52.0391 99.3945 52.0605 99.6094 52.0996C99.793 52.1309 99.9883 52.1816 100.195 52.252C100.406 52.3223 100.605 52.4219 100.793 52.5508L100.828 50.4883L99.0176 50.6816L98.9707 49.6738L102.844 49.3105L102.41 57.1387H103.688V58.2871ZM99.0762 52.9023C98.834 52.9023 98.623 52.9707 98.4434 53.1074C98.2676 53.2441 98.1191 53.4199 97.998 53.6348C97.8809 53.8457 97.793 54.082 97.7344 54.3438C97.6758 54.6016 97.6465 54.8516 97.6465 55.0938C97.6465 55.3359 97.6719 55.5879 97.7227 55.8496C97.7773 56.1113 97.8633 56.3516 97.9805 56.5703C98.0977 56.7891 98.248 56.9707 98.4316 57.1152C98.6191 57.2559 98.8457 57.3262 99.1113 57.3262C99.2715 57.3184 99.4414 57.2734 99.6211 57.1914C99.7734 57.125 99.9453 57.0176 100.137 56.8691C100.332 56.7168 100.531 56.502 100.734 56.2246L100.781 53.6055C100.547 53.4297 100.326 53.2949 100.119 53.2012C99.916 53.1074 99.7363 53.0391 99.5801 52.9961C99.3965 52.9453 99.2285 52.9141 99.0762 52.9023ZM111.352 57.3262L111.053 58.4102L108.141 58.1934C108.148 58.1348 108.158 58.0703 108.17 58C108.182 57.9297 108.193 57.8633 108.205 57.8008C108.221 57.7305 108.234 57.6602 108.246 57.5898C107.906 57.7773 107.562 57.9102 107.215 57.9883C106.867 58.0664 106.527 58.1055 106.195 58.1055C105.953 58.1055 105.701 58.084 105.439 58.041C105.178 57.998 104.938 57.9238 104.719 57.8184C104.504 57.709 104.326 57.5664 104.186 57.3906C104.045 57.2109 103.975 56.9863 103.975 56.7168C103.975 56.4316 104.039 56.1855 104.168 55.9785C104.297 55.7715 104.467 55.5957 104.678 55.4512C104.889 55.3027 105.127 55.1836 105.393 55.0938C105.662 55.0039 105.934 54.9336 106.207 54.8828C106.484 54.8281 106.754 54.793 107.016 54.7773C107.277 54.7578 107.508 54.748 107.707 54.748C107.918 54.748 108.107 54.7539 108.275 54.7656C108.443 54.7734 108.594 54.7871 108.727 54.8066C108.773 54.5215 108.797 54.25 108.797 53.9922C108.797 53.8047 108.771 53.6348 108.721 53.4824C108.674 53.3301 108.59 53.2031 108.469 53.1016C108.352 53 108.193 52.9238 107.994 52.873C107.799 52.8223 107.555 52.8027 107.262 52.8145C107.066 52.834 106.887 52.8887 106.723 52.9785C106.652 53.0176 106.58 53.0664 106.506 53.125C106.436 53.1836 106.367 53.2539 106.301 53.3359C106.238 53.418 106.182 53.5156 106.131 53.6289C106.08 53.7383 106.041 53.8633 106.014 54.0039L104.121 54.0977C104.148 53.8281 104.217 53.5898 104.326 53.3828C104.436 53.1719 104.568 52.9902 104.725 52.8379C104.885 52.6816 105.061 52.5488 105.252 52.4395C105.443 52.3301 105.637 52.2383 105.832 52.1641C106.293 51.9961 106.807 51.8926 107.373 51.8535C107.881 51.8457 108.311 51.8945 108.662 52C109.018 52.1016 109.311 52.2402 109.541 52.416C109.771 52.5879 109.951 52.7832 110.08 53.002C110.209 53.2207 110.303 53.4395 110.361 53.6582C110.42 53.873 110.453 54.0781 110.461 54.2734C110.469 54.4648 110.471 54.623 110.467 54.748C110.455 54.9004 110.428 55.0918 110.385 55.3223C110.35 55.5215 110.297 55.7715 110.227 56.0723C110.16 56.373 110.068 56.7324 109.951 57.1504L111.352 57.3262ZM108.592 55.5977C108.502 55.5898 108.404 55.584 108.299 55.5801C108.193 55.5762 108.084 55.5742 107.971 55.5742C107.873 55.5742 107.752 55.5781 107.607 55.5859C107.467 55.5938 107.318 55.6094 107.162 55.6328C107.006 55.6523 106.85 55.6816 106.693 55.7207C106.537 55.7598 106.396 55.8105 106.271 55.873C106.15 55.9355 106.051 56.0117 105.973 56.1016C105.895 56.1914 105.855 56.2969 105.855 56.418C105.855 56.5117 105.883 56.6016 105.938 56.6875C105.996 56.7695 106.074 56.8398 106.172 56.8984C106.27 56.957 106.383 57 106.512 57.0273C106.645 57.0508 106.783 57.0508 106.928 57.0273C107.221 56.9727 107.496 56.9062 107.754 56.8281C108.016 56.7461 108.24 56.668 108.428 56.5938C108.459 56.4297 108.488 56.2637 108.516 56.0957C108.543 55.9277 108.568 55.7617 108.592 55.5977ZM119.572 58.082H116.959L114.615 55.3457L114.352 55.5156L114.27 56.9805L115.301 56.9453V58.082H111.375V57.0625L112.459 57.0273L112.564 50.7285L111.305 50.6699V49.6504L114.715 49.5508L114.428 54.291L116.607 52.4688L119.104 52.1816L118.939 53.5586H117.363L116.068 54.4141L118.412 56.9453L119.572 56.7402V58.082ZM123.932 56.8691L123.82 58.1348L119.801 58.1055V57.0391L121.014 56.9922L120.932 50.4648L119.684 50.5117V49.5625L122.971 49.3691L122.789 52.8789C123.082 52.6406 123.369 52.4629 123.65 52.3457C123.936 52.2285 124.188 52.1465 124.406 52.0996C124.664 52.0449 124.91 52.0234 125.145 52.0352C125.535 52.0352 125.867 52.0898 126.141 52.1992C126.418 52.3047 126.641 52.457 126.809 52.6562C126.98 52.8516 127.105 53.0859 127.184 53.3594C127.262 53.6328 127.301 53.9355 127.301 54.2676C127.301 54.7793 127.277 55.2637 127.23 55.7207C127.188 56.1738 127.127 56.6133 127.049 57.0391L128.297 56.9688L128.133 58.1348L124.963 58.0117C125.006 57.6602 125.047 57.3262 125.086 57.0098C125.129 56.6895 125.166 56.3809 125.197 56.084C125.232 55.7832 125.26 55.4922 125.279 55.2109C125.299 54.9258 125.309 54.6426 125.309 54.3613C125.309 54.1855 125.295 54.0215 125.268 53.8691C125.24 53.7129 125.193 53.5781 125.127 53.4648C125.061 53.3516 124.971 53.2617 124.857 53.1953C124.748 53.125 124.611 53.0859 124.447 53.0781C124.299 53.0859 124.135 53.1211 123.955 53.1836C123.803 53.2383 123.623 53.3262 123.416 53.4473C123.209 53.5645 122.984 53.7344 122.742 53.957L122.584 56.9336L123.932 56.8691Z" fill="white"/>
</svg>
